<svg width="199" height="186" viewBox="0 0 199 186" fill="none" xmlns="http://www.w3.org/2000/svg">
<path d="M177.511 85.0527C178.553 80.8526 179.595 75.9525 179.942 70.7024C179.942 75.2525 179.074 80.1526 177.511 85.0527Z" fill="#00AB62"/>
<path d="M26.5786 110.604C25.189 105.354 24.668 100.279 24.668 95.5535C25.189 104.479 26.5786 110.254 26.5786 110.604Z" fill="#00B4FF"/>
<path d="M26.5786 110.603C26.4049 110.253 25.0154 104.478 24.668 95.5526V95.3776C24.668 90.4774 25.189 85.9273 26.2312 81.5522C24.4943 96.4276 26.4049 109.553 26.5786 110.603Z" fill="#706766"/>
<path d="M52 135.5C46.741 148.585 41.7881 163.189 38.771 172.438C36.9532 178.011 31.7776 181.83 25.9157 181.83C20.7544 181.83 19.1787 177.571 23.9887 175.7C25.3069 175.187 26.252 174.878 26.3846 174.835C26.3988 174.83 26.4014 174.83 26.4153 174.824C26.8515 174.658 36.7772 170.177 26.748 110.603C43.596 119.353 49.5683 122.375 52 135.5Z" fill="#FFC766"/>
<path d="M26.5786 110.604C25.189 105.354 24.668 100.279 24.668 95.5535C25.189 104.479 26.5786 110.254 26.5786 110.604Z" fill="#FFA200"/>
<path d="M63.2231 114.802C52.628 114.278 39.4944 115.129 26.5742 110.603C27.0953 109.553 35.5934 89.6018 46.8833 65.6262C52.2678 63.5262 59.3862 61.0815 67.7105 64.4066C67.7105 64.4066 67.5564 64.5985 68.0775 64.7735C70.1686 80.9297 67.704 98.2807 63.2231 114.802Z" fill="#EA6766"/>
<path d="M63.2231 114.803C60.4441 126.354 56.6228 137.204 52.9753 146.479C50.37 133.354 43.4223 119.178 26.5742 110.603C40.4695 113.053 52.6279 114.278 63.2231 114.803Z" fill="#EA6766"/>
<path d="M74.8582 115.153C70.8956 142.53 66.2411 169.443 62.1162 180.461C60.8372 183.877 57.4174 185.329 53.7697 185.329H52.5095C47.539 185.329 43.4469 183.702 47.4443 180.748C48.9053 179.668 52.6977 176.308 53.0154 174.519C53.898 169.55 55.2807 158.491 52.9731 146.478C56.6206 137.203 60.4418 126.353 63.2209 114.802C67.3895 115.152 71.2107 115.153 74.8582 115.153Z" fill="#EA6766"/>
<path d="M84.2169 41.267C81.0904 40.567 78.3114 40.042 75.5323 39.692C71.3637 39.167 67.5425 39.167 64.0687 39.342C64.0687 39.342 64.0687 39.517 64.2424 39.517C67.0214 45.1171 82.6536 54.7423 82.6536 54.7423C82.6536 66.2926 70.8297 64.935 67.7032 64.5849C68.7454 81.7353 66.9404 99.7187 63.1191 115.294C67.2877 115.469 74.8525 115.255 78.5 115.08C83.7108 78.5041 84.3906 41.267 84.2169 41.267C84.3906 41.267 84.3906 41.267 84.2169 41.267Z" fill="#EA6766"/>
<path d="M47.0685 65.6265C35.7786 89.602 27.094 109.553 26.5729 110.603C26.5729 108.852 25.8782 74.2017 47.0685 65.6265Z" fill="#EA6766"/>
<path d="M64.0941 39.0272C62.5309 39.2022 60.9677 39.3772 59.5781 39.5522C60.4466 37.6271 61.4887 35.7021 62.5309 33.6021C63.052 35.0021 64.0941 38.6772 64.0941 39.0272Z" fill="#706766"/>
<path d="M62.5299 33.6021C61.4878 35.5271 60.6193 37.4521 59.5771 39.5522C56.9718 39.9022 54.3664 40.6022 52.1084 41.4772C58.0139 36.4021 62.5299 33.6021 62.5299 33.6021Z" fill="#706766"/>
<path d="M82.6769 54.4268C82.6769 65.977 70.8301 64.9347 67.7037 64.5847C67.1826 55.8345 66.6973 47.7766 64.2656 39.2014C66.871 44.8015 82.6769 54.4268 82.6769 54.4268Z" fill="#706766"/>
<path d="M52.1105 41.4778C42.9048 49.353 30.5727 63.1783 26.2305 81.7286C28.1411 65.8033 34.3939 47.9529 52.1105 41.4778Z" fill="#706766"/>
<path d="M59.5746 39.5513C55.2323 48.3015 51.0637 57.2267 47.0688 65.6269C25.7047 74.2021 26.5732 108.853 26.5732 110.603C26.3995 109.553 24.4889 96.4276 26.0521 81.7272C30.3944 63.0018 42.9002 49.3515 51.9321 41.4763C54.3638 40.6013 56.9692 39.9013 59.5746 39.5513Z" fill="#706766"/>
<path d="M67.7114 64.5901C67.1903 64.5901 67.1609 64.5901 67.1609 64.5901C58.8237 62.4901 52.4557 63.3524 47.0713 65.4524C51.0662 57.0522 55.2348 48.127 59.5771 39.3768C60.9666 39.2018 62.5298 39.0268 64.0931 38.8518C64.0931 38.8518 64.0931 39.0268 64.2668 39.0268C66.6985 47.777 67.1903 56.0149 67.7114 64.5901Z" fill="#706766"/>
<path d="M159.678 146.73C160.672 149.186 160.906 151.921 160.099 154.443L153.509 175.05C152.184 179.193 148.333 182.004 143.984 182.004H142.972C136.391 182.004 134.197 177.096 140.25 174.512C141.018 174.184 141.5 174 141.5 174C141.5 174 154 157 129.574 127.578C123.321 121.453 119.152 113.928 116.373 105.878C120.368 103.428 123.619 100.044 125.877 97.0688C126.572 98.4689 127.771 99.783 128.079 101.289C128.253 101.464 128.63 101.673 128.63 102.023C132.451 107.973 137.25 113.463 143.676 118.538C148.54 122.388 152.284 126.248 155.236 130.098C156.084 136.93 158.176 143.019 159.678 146.73Z" fill="#CAEE66"/>
<path d="M125.579 97.3026C126.274 98.7026 127.142 99.9276 127.837 101.328C127.142 99.9276 126.274 98.7026 125.579 97.3026C121.063 89.2524 117.936 79.6272 116.547 68.0769C117.763 77.3521 120.368 87.5024 125.579 97.3026Z" fill="#A6E200"/>
<path d="M177.341 85.228C175.952 89.9532 174.562 93.4532 174.041 94.6782C174.562 92.4032 175.431 90.1281 176.299 87.8531C176.82 86.9781 177.167 86.103 177.341 85.228Z" fill="#A6E200"/>
<path d="M179.771 70.5279C179.25 50.7524 162.055 34.827 132.18 35.177C132.874 35.177 133.569 35.177 134.264 35.177C135.306 35.177 136.348 35.177 137.564 35.177C145.38 35.177 151.807 36.2271 157.018 37.8021H157.191C176.123 43.5772 180.292 57.7526 179.771 70.5279Z" fill="#A6E200"/>
<path d="M181.731 143.459C183.048 145.887 183.605 148.71 183.015 151.408L177.321 177.464C176.318 182.056 172.252 185.329 167.552 185.329H164.104C157.761 185.329 155.87 180.927 161.831 178.759C161.975 178.707 162.054 178.679 162.054 178.679C162.054 178.679 184.5 169 155.107 131C154.933 129.6 155.107 127.403 155.107 126.003C162.923 130.378 170.913 133.178 177.86 135.103C179.221 138.572 180.619 141.409 181.731 143.459Z" fill="#66AA66"/>
<path d="M156.5 133.5C152.5 125.5 148.331 122.504 143.641 118.653C137.215 113.578 132.351 107.803 128.356 101.853C135.652 112.878 151.5 117 155.105 126.179C155.105 127.579 169.5 148.5 156.5 133.5Z" fill="#66AA66"/>
<path d="M177.686 135.104C170.739 133.179 162.749 130.379 154.933 126.003C154.933 115.328 158.928 103.078 173.865 95.0277C173.865 95.0277 173.865 94.8527 174.039 94.6777C169.87 110.428 173.691 125.303 177.686 135.104Z" fill="#66AA66"/>
<path d="M179.77 70.5279C179.597 75.953 178.555 80.8531 177.339 85.0533C177.339 85.0533 177.339 85.0533 177.339 85.2281C176.991 86.1032 176.644 86.9784 176.297 87.8532C175.254 90.1283 174.56 92.4033 174.039 94.6784C173.865 95.0284 173.865 95.0284 173.865 95.0284C158.927 103.079 154.933 115.329 155.106 126.179C145.38 120.754 135.653 113.054 128.358 101.854C128.184 101.678 128.01 101.504 128.01 101.154C127.142 99.9286 126.447 98.5286 125.752 97.1283C142.079 74.028 117.254 36.6988 117.254 36.6988C117.254 36.6988 117.763 36.4021 118.631 36.4021C118.805 36.4021 119.152 36.4021 119.326 36.2271C123.842 35.7021 128.01 35.3521 132.005 35.177H132.179C162.054 34.827 179.249 50.7524 179.77 70.5279Z" fill="#66AA66"/>
<path d="M116.546 105.879C107.862 111.304 94.6613 114.979 75.0342 115.154C80.4186 78.4033 84.2247 41.2863 84.2247 41.2863C92.7356 42.1612 103.867 41.1273 117.241 36.7522C116.546 38.6772 106.299 75.9531 116.546 105.879Z" fill="#EA6766"/>
<path d="M125.878 97.2521C123.62 100.402 120.331 103.426 116.336 105.876C106.088 75.9507 116.549 38.8074 117.07 36.8823C116.897 38.1074 114.291 51.1007 116.375 67.7261V67.9011C117.938 79.6264 121.536 89.2017 125.878 97.2521Z" fill="#EA6766"/>
<path d="M115.659 67.3927C113.575 50.5923 116.702 37.9834 117.253 36.699C117.253 36.699 143.803 76.1243 125.51 97.4358C121.168 89.3858 117.049 78.9428 115.659 67.3927Z" fill="#66AA66"/>
<path d="M176.473 87.6763C176.82 86.8013 177.168 85.9263 177.515 85.0513C176.125 89.7764 174.736 93.2765 174.215 94.5015C174.736 92.4014 175.431 90.1264 176.473 87.6763Z" fill="#66D2FF"/>
<path d="M179.77 70.7024C179.943 75.2525 179.075 80.1526 177.338 85.0527C178.554 81.0276 179.596 75.9525 179.77 70.7024Z" fill="#FFBD00"/>
<path d="M197.632 137.045C198.044 137.77 197.488 138.709 196.657 138.638C193.334 138.354 186.267 137.534 177.687 135.279C173.692 125.479 169.871 110.603 174.039 94.6779C174.561 93.4527 175.95 89.9529 177.34 85.2276C177.34 85.2276 177.34 85.2276 177.34 85.0528C179.077 80.1526 179.771 75.2524 179.771 70.7023V70.5273C180.292 57.752 176.124 43.5767 157.191 37.8015C172.129 42.0016 185.677 52.1518 185.677 74.9024C185.677 112.671 194.516 131.559 197.632 137.045Z" fill="#66D2FF"/>
<path d="M179.771 70.5287C179.25 50.7532 162.054 34.8279 132.179 35.1779H132.006C128.184 35.3529 123.842 35.7029 119.326 36.2279C120.021 36.0529 120.716 36.0529 121.584 35.8779C121.932 35.8779 122.105 35.8779 122.453 35.7029C122.8 35.7029 123.321 35.7029 123.842 35.5279C124.884 35.3529 126.1 35.3529 127.49 35.1779C128.011 35.1779 128.532 35.1779 129.053 35.0029C129.4 35.0029 129.574 35.0029 129.921 35.0029C131.311 35.0029 132.7 34.8279 134.09 34.8279C135.132 34.8279 136.174 34.8279 137.39 34.8279C143.469 35.0029 150.417 35.7029 156.844 37.4529H157.017C176.123 43.5781 180.292 57.7534 179.771 70.5287Z" fill="#66D2FF"/>
<path fill-rule="evenodd" clip-rule="evenodd" d="M62.3551 0.176875C62.3551 0.176875 53.8442 2.80194 50.0232 8.40206C50.1967 7.87705 51.5862 1.92692 49.6759 0.00187053C49.5021 -0.173133 0 11.9022 0 48.6532C0 92.229 25.5326 109.905 26.5748 110.604C-24.2339 34.8461 51.1509 20.9751 55.5819 20.1597L55.5983 20.1567L55.6371 20.2235C26.74 43.8422 23.6232 76.6794 24.4905 95.554C24.4905 90.6539 25.0116 86.1037 26.0537 81.7287C27.9643 65.8035 34.2172 47.9528 51.9339 41.4779C57.8391 36.4027 62.1816 33.7777 62.1816 33.7777H62.3551C60.2447 28.2166 56.162 21.1269 55.6371 20.2235L55.7549 20.1274C55.7251 20.1334 55.6726 20.1431 55.5983 20.1567L55.5811 20.1274C55.5811 20.1274 64.2658 8.57705 62.3551 0.176875ZM33.5237 15.7511C33.5237 15.7511 40.6452 5.07587 48.461 2.2758C48.6349 2.2758 49.8506 15.0511 33.5237 15.7511ZM60.4455 3.32647C54.54 6.47656 52.282 12.9517 52.282 12.9517C57.1208 11.622 59.4839 5.67745 60.2073 3.85763C60.3408 3.52183 60.4185 3.32647 60.4455 3.32647Z" fill="#66D2FF"/>
<path d="M24.6649 95.5519C24.6649 100.452 25.3597 105.352 26.5755 110.602C-25.1845 33.4255 54.0187 20.4753 55.7555 20.1252C26.9229 43.7508 23.6228 76.4764 24.6649 95.5519Z" fill="#66D2FF"/>
<path d="M26.5786 110.604C25.189 105.354 24.668 100.279 24.668 95.5535C25.189 104.479 26.5786 110.254 26.5786 110.604Z" fill="#00B4FF"/>
<path d="M33.5205 15.7512C33.5205 15.7512 40.6419 5.07594 48.458 2.27588C48.6317 2.27588 49.8475 15.0512 33.5205 15.7512Z" fill="#5AC8F6"/>
<path d="M60.2709 3.32642C60.2709 3.32642 57.8393 11.5516 52.1074 12.9517C52.2811 12.9517 54.5391 6.47649 60.2709 3.32642Z" fill="#5AC8F6"/>
</svg>
